<?xml version="1.0" standalone="no"?>
<!DOCTYPE svg PUBLIC "-//W3C//DTD SVG 20010904//EN"
 "http://www.w3.org/TR/2001/REC-SVG-20010904/DTD/svg10.dtd">
<svg version="1.0" xmlns="http://www.w3.org/2000/svg"
 width="360.000000pt" height="360.000000pt" viewBox="0 0 360.000000 360.000000"
 preserveAspectRatio="xMidYMid meet">

<g transform="translate(0.000000,360.000000) scale(0.100000,-0.100000)"
fill="#000000" stroke="none">
<path d="M568 3164 c-137 -120 -178 -161 -178 -179 0 -27 13 -40 224 -224 76
-66 142 -121 148 -121 26 0 48 23 48 49 0 23 -20 45 -117 131 -65 57 -120 107
-121 112 -2 5 144 8 343 8 304 -2 350 0 363 14 12 12 14 22 6 43 l-9 28 -354
5 -354 5 121 108 c123 109 140 135 110 165 -27 27 -58 8 -230 -144z"/>
<path d="M2694 3312 c-6 -4 -14 -15 -17 -26 -8 -20 27 -58 173 -188 l75 -67
-351 -1 c-258 0 -353 -3 -362 -12 -16 -16 -15 -53 1 -66 9 -8 128 -12 360 -12
191 -1 347 -5 346 -8 0 -4 -53 -53 -119 -110 -65 -57 -120 -112 -123 -123 -6
-22 23 -59 47 -59 7 0 76 55 152 121 209 182 224 197 224 223 0 18 -43 62
-177 180 -168 148 -200 168 -229 148z"/>
<path d="M1645 3183 c-41 -21 -74 -52 -93 -88 -15 -27 -18 -109 -22 -815 l-5
-785 -43 115 c-24 63 -54 129 -67 146 -70 92 -240 100 -328 16 -44 -41 -67
-94 -67 -153 0 -73 254 -848 308 -938 106 -180 284 -306 517 -367 145 -38 373
-45 497 -15 238 56 434 225 532 458 36 87 83 278 101 416 31 238 11 719 -33
804 -45 86 -164 127 -256 89 -21 -9 -40 -16 -41 -16 -2 0 -9 16 -15 36 -16 47
-63 100 -111 125 -46 23 -135 25 -186 4 -19 -8 -37 -15 -38 -15 -2 0 -6 12 -9
26 -11 43 -54 91 -102 115 -37 17 -57 20 -117 17 -40 -3 -80 -8 -89 -12 -17
-8 -18 12 -18 331 0 387 -3 406 -71 468 -22 20 -51 40 -65 45 -39 15 -145 11
-179 -7z m155 -88 c16 -9 38 -30 47 -48 17 -29 18 -80 21 -630 l3 -598 24 -11
c20 -9 28 -8 44 6 18 16 20 35 23 207 l3 189 27 26 c38 39 110 44 158 12 52
-36 59 -67 59 -293 1 -142 5 -205 13 -213 16 -16 53 -15 66 1 6 7 12 80 14
170 l3 159 32 28 c41 37 89 46 136 27 66 -28 72 -47 75 -261 2 -113 8 -196 14
-203 14 -18 43 -16 62 3 13 12 16 39 16 123 0 96 3 112 23 142 41 61 131 73
178 23 28 -30 35 -74 50 -323 22 -366 -28 -693 -139 -905 -44 -84 -159 -209
-236 -255 -179 -108 -431 -128 -683 -55 -181 52 -345 171 -420 304 -17 30 -92
241 -168 468 -151 455 -151 459 -94 513 55 52 155 45 193 -14 9 -13 55 -130
102 -258 47 -129 91 -241 99 -248 11 -11 21 -13 42 -5 l28 9 5 927 5 926 25
27 c43 47 97 57 150 30z"/>
</g>
</svg>
