<?xml version="1.0" standalone="no"?>
<!DOCTYPE svg PUBLIC "-//W3C//DTD SVG 20010904//EN"
 "http://www.w3.org/TR/2001/REC-SVG-20010904/DTD/svg10.dtd">
<svg version="1.0" xmlns="http://www.w3.org/2000/svg"
 width="1024.000000pt" height="1024.000000pt" viewBox="0 0 1024.000000 1024.000000"
 preserveAspectRatio="xMidYMid meet">

<g transform="translate(0.000000,1024.000000) scale(0.100000,-0.100000)"
fill="#000000" stroke="none">
<path d="M4155 8940 c-288 -59 -535 -210 -717 -438 -150 -189 -233 -398 -259
-653 -46 -466 208 -940 628 -1171 l73 -40 0 -1041 c0 -573 -4 -1037 -8 -1032
-5 6 -60 93 -122 195 -295 483 -381 575 -583 626 -85 22 -230 15 -312 -16
-283 -106 -430 -404 -340 -689 30 -95 64 -148 185 -285 l90 -104 121 -338
c150 -424 221 -614 271 -729 171 -393 310 -576 843 -1112 219 -220 344 -354
352 -375 8 -23 10 -67 6 -140 -7 -131 5 -181 58 -242 72 -81 -24 -76 1367 -76
896 0 1245 3 1273 11 51 16 105 62 131 112 19 37 22 65 28 232 l6 190 66 115
c226 398 346 680 404 955 41 189 44 485 10 945 -35 487 -44 705 -51 1285 -7
548 -12 592 -67 705 -40 82 -149 193 -234 238 -178 93 -410 79 -560 -34 -34
-25 -44 -23 -44 12 0 90 -99 267 -191 342 -126 103 -299 150 -445 123 -73 -14
-158 -48 -215 -87 -28 -19 -54 -34 -58 -33 -3 0 -19 27 -35 61 -18 39 -53 86
-95 127 -109 110 -232 161 -386 161 -131 0 -226 -32 -332 -111 l-53 -40 0 40
c0 37 4 42 38 60 111 57 277 205 372 332 229 307 299 723 185 1089 -34 106
-119 273 -186 363 -186 248 -464 420 -763 472 -122 21 -335 19 -451 -5z m445
-157 c393 -78 708 -373 816 -764 51 -187 42 -427 -22 -618 -68 -200 -213 -394
-387 -519 l-46 -32 -3 482 c-4 434 -6 489 -22 538 -31 92 -63 147 -133 221
-52 55 -84 78 -147 109 -124 59 -222 72 -349 45 -183 -38 -321 -159 -395 -343
l-27 -67 -5 -509 -5 -508 -76 51 c-188 126 -339 324 -412 543 -168 501 63
1050 538 1283 213 105 442 134 675 88z m-116 -854 c21 -6 58 -28 81 -50 80
-74 75 17 75 -1333 0 -1148 1 -1203 19 -1242 58 -127 212 -179 334 -112 49 27
102 94 117 146 6 23 10 201 10 466 0 292 4 441 11 467 27 89 112 149 212 149
96 0 168 -43 206 -125 20 -43 21 -59 21 -403 0 -242 4 -370 11 -393 30 -87
106 -140 203 -140 85 0 157 47 192 126 5 11 11 140 14 286 l5 266 30 49 c98
158 327 146 411 -22 17 -36 19 -70 24 -384 4 -297 7 -349 22 -375 74 -135 255
-155 356 -41 42 48 52 91 52 230 0 65 5 136 12 157 15 52 73 117 122 140 53
24 139 24 191 0 52 -23 111 -90 124 -138 6 -21 13 -230 16 -468 8 -575 21
-912 50 -1320 49 -668 30 -888 -102 -1225 -54 -136 -174 -380 -268 -545 -88
-152 -104 -207 -112 -367 l-6 -128 -1109 0 -1108 0 0 83 c0 87 -17 162 -52
232 -12 24 -159 180 -357 380 -435 440 -559 584 -687 802 -107 181 -163 318
-393 961 -78 217 -151 406 -163 422 -13 15 -62 72 -109 126 -105 122 -115 137
-128 197 -32 141 79 277 224 277 66 0 128 -23 165 -61 36 -38 182 -264 335
-518 77 -128 174 -285 216 -349 42 -64 81 -127 87 -139 7 -11 28 -31 47 -43
70 -43 218 -18 274 45 17 20 32 37 33 38 2 1 5 842 8 1868 l5 1866 30 48 c52
85 150 122 249 94z"/>
<path d="M2884 8693 c-35 -38 -158 -292 -194 -401 -105 -322 -118 -688 -35
-1007 45 -171 125 -367 182 -442 27 -37 72 -44 110 -18 40 28 38 60 -13 164
-120 245 -173 471 -174 731 0 296 69 563 210 812 30 52 50 100 50 118 0 68
-87 96 -136 43z"/>
<path d="M5792 8700 c-38 -36 -38 -63 4 -137 141 -251 201 -442 225 -719 17
-198 -11 -425 -77 -629 -14 -44 -53 -137 -86 -207 -56 -118 -60 -129 -49 -157
15 -34 59 -56 96 -47 63 16 189 310 247 577 19 91 22 134 23 339 0 265 -14
367 -81 569 -41 125 -154 359 -194 401 -33 36 -76 40 -108 10z"/>
</g>
</svg>
